<?xml version="1.0" encoding="UTF-8"?>
<svg version="1.1" xmlns="http://www.w3.org/2000/svg" width="512" height="512">
<path d="M0 0 C1.92965531 1.82022597 3.83913871 3.65991135 5.75 5.5 C6.82894531 6.46679688 6.82894531 6.46679688 7.9296875 7.453125 C19.8206497 18.4367447 32.21588626 38.12110108 34.0859375 54.4296875 C34.18517441 61.91215073 33.46054385 67.30118328 28.41151428 73.01461792 C23.13619132 77.9284906 17.29821957 79.74125492 10.49609375 81.8203125 C9.29996964 82.20087296 8.10384552 82.58143341 6.87147522 82.973526 C3.64926218 83.99522677 0.42305815 85.00171059 -2.80599976 86.00139999 C-6.18449019 87.05140069 -9.55676188 88.12100785 -12.9296875 89.1887207 C-18.28216858 90.88061059 -23.63780221 92.56205691 -28.99658203 94.23388672 C-34.93930985 96.08843345 -40.87636572 97.95982602 -46.80859375 99.84765625 C-48.33485516 100.33251495 -49.86114026 100.81729909 -51.38745117 101.30200195 C-52.11161224 101.53198883 -52.83577332 101.76197571 -53.58187866 101.99893188 C-54.2973587 102.22615936 -55.01283875 102.45338684 -55.75 102.6875 C-56.46878326 102.91593597 -57.18756653 103.14437195 -57.9281311 103.37973022 C-66.47936695 106.09399788 -75.04563799 108.7482283 -83.63989258 111.32341003 C-88.1517216 112.67880724 -92.65790427 114.0524834 -97.16381836 115.42739868 C-99.33066133 116.08345737 -101.4999914 116.73137687 -103.67211914 117.36972046 C-116.05351286 121.01082576 -127.5261334 125.3682895 -139.02246094 131.27172852 C-140.2183865 131.87891349 -141.41466415 132.48540549 -142.61129761 133.09119415 C-145.49437958 134.55406402 -148.37377176 136.02371349 -151.25 137.5 C-150.27984105 137.50358253 -150.27984105 137.50358253 -149.29008293 137.50723743 C-133.49593717 137.56657452 -117.70196467 137.64224265 -101.90798759 137.73571491 C-94.26988995 137.7805319 -86.63183747 137.81997835 -78.99365234 137.84643555 C-72.33016742 137.86953058 -65.66682713 137.90305497 -59.00345719 137.94870156 C-55.48071655 137.97248009 -51.95811776 137.99130878 -48.43529892 137.99761391 C-44.48649313 138.00487807 -40.53804018 138.03544497 -36.58935547 138.06762695 C-35.4427948 138.06619186 -34.29623413 138.06475677 -33.1149292 138.0632782 C-9.86017316 138.32924826 10.17368507 147.42421323 26.75 163.5 C27.36230469 164.03882813 27.97460938 164.57765625 28.60546875 165.1328125 C43.72470578 178.90273547 51.04434229 200.90095038 52.03372192 220.86224365 C52.17700514 225.49009875 52.16823318 230.11654648 52.1484375 234.74609375 C52.15046704 236.453701 52.15338572 238.1613074 52.15713501 239.86891174 C52.16151827 243.42123796 52.15525897 246.97333548 52.14111328 250.52563477 C52.12403701 255.02787501 52.13387845 259.5295778 52.15183067 264.03179836 C52.16278914 267.55047997 52.15916743 271.06903892 52.1514473 274.58772469 C52.14947772 276.24553558 52.15178719 277.90335845 52.15888596 279.56115532 C52.24948211 306.6524264 45.39420891 330.0443663 26.40234375 349.97265625 C10.00031207 365.60169085 -10.087228 373.65104892 -32.56967163 373.64717102 C-33.71507089 373.65084771 -34.86047015 373.6545244 -36.04057848 373.6583125 C-39.88171182 373.6693324 -43.72281808 373.67319036 -47.56396484 373.67700195 C-50.3171817 373.68273807 -53.07039454 373.68990243 -55.8236084 373.69691467 C-64.08821701 373.71664486 -72.35282678 373.72674169 -80.61745304 373.73564246 C-84.51549384 373.7400317 -88.41353329 373.74539692 -92.31157303 373.75063133 C-105.28054459 373.76764145 -118.24951532 373.78213318 -131.21849632 373.78938007 C-134.58137386 373.79128978 -137.94425139 373.79321013 -141.30712891 373.79516602 C-142.1428923 373.79564976 -142.97865569 373.7961335 -143.83974524 373.7966319 C-157.36303708 373.80492311 -170.88624022 373.8302456 -184.40949337 373.86274669 C-198.31343492 373.89588848 -212.2173315 373.91383532 -226.12131274 373.91702431 C-233.91975129 373.91918302 -241.71806053 373.92783724 -249.51646042 373.95348549 C-256.16132937 373.97529016 -262.8060376 373.98319534 -269.45093827 373.97351871 C-272.8353573 373.96900171 -276.21917899 373.97292927 -279.60359573 373.99028015 C-296.84613916 374.07368849 -312.46528829 373.55650647 -328.1875 365.6875 C-329.25194336 365.16929687 -329.25194336 365.16929687 -330.33789062 364.640625 C-335.87059682 361.86665109 -340.632251 358.63215238 -345.25 354.5 C-346.34828125 353.61248047 -346.34828125 353.61248047 -347.46875 352.70703125 C-364.02848837 338.95450881 -374.20299271 317.81458655 -376.25 296.5 C-376.40490442 292.46334655 -376.41422536 288.42870561 -376.42358398 284.3894043 C-376.430271 283.18524872 -376.43695801 281.98109314 -376.44384766 280.740448 C-376.46151723 277.45311014 -376.47509466 274.16578256 -376.4874599 270.87842155 C-376.50197431 267.42509022 -376.52346441 263.97180441 -376.54469299 260.51850891 C-376.61565082 248.77093222 -376.67559026 237.02331362 -376.72680664 225.27563477 C-376.75520487 218.77880929 -376.79063381 212.28205872 -376.83346039 205.785312 C-376.8557284 202.35448338 -376.87429293 198.92372337 -376.88390923 195.49283409 C-376.89611422 191.66137599 -376.92028595 187.83015974 -376.94702148 183.9987793 C-376.94761063 182.87688705 -376.94819977 181.75499481 -376.94880676 180.59910583 C-377.00276176 174.7396493 -377.46889131 169.31293136 -378.79477978 163.59844589 C-384.38329583 137.83685188 -376.82840659 108.0726455 -363 86.1875 C-341.82602747 54.31563432 -311.8779312 42.23205886 -276.625 31.3125 C-274.120166 30.53018228 -271.61561518 29.74695739 -269.11132812 28.96289062 C-265.18119386 27.73244023 -261.25093701 26.50240011 -257.31964111 25.27566528 C-244.09580093 21.14830553 -230.89337304 16.95435822 -217.6925354 12.75411987 C-211.1149136 10.6614364 -204.53596215 8.57293854 -197.95703125 6.484375 C-197.30801283 6.27832075 -196.65899441 6.0722665 -195.99030876 5.85996819 C-182.35636574 1.53157997 -168.71960133 -2.78786115 -155.08007812 -7.09863281 C-152.70838784 -7.84829041 -150.33680045 -8.59827366 -147.96533203 -9.34863281 C-141.48173982 -11.39984322 -134.99587205 -13.44356454 -128.5067749 -15.47729492 C-126.26058968 -16.18265071 -124.01523578 -16.89065742 -121.77056885 -17.60083008 C-118.28259502 -18.70375716 -114.79198709 -19.79797766 -111.30078125 -20.890625 C-109.73024239 -21.39018707 -109.73024239 -21.39018707 -108.12797546 -21.89984131 C-70.9499411 -33.46717941 -29.13209697 -26.67401929 0 0 Z M-90.25 18.5 C-90.25 19.49 -90.25 20.48 -90.25 21.5 C-88.35650618 23.33629766 -86.48522762 24.97721918 -84.4375 26.625 C-83.84582031 27.11291016 -83.25414062 27.60082031 -82.64453125 28.10351562 C-80.85324139 29.57767798 -79.05270102 31.03982735 -77.25 32.5 C-75.41655492 33.99986341 -73.58321268 35.49985255 -71.75 37 C-70.87214844 37.71285156 -69.99429687 38.42570312 -69.08984375 39.16015625 C-66.97939681 40.89902519 -64.89154861 42.65350079 -62.81640625 44.43359375 C-61.94242187 45.18189453 -61.94242187 45.18189453 -61.05078125 45.9453125 C-59.91881663 46.91702146 -58.78974961 47.89211942 -57.6640625 48.87109375 C-53.79787174 52.27198665 -53.79787174 52.27198665 -49.25 54.5 C-46.03191278 53.97748312 -46.03191278 53.97748312 -42.55078125 52.796875 C-41.91512741 52.59902405 -41.27947357 52.4011731 -40.6245575 52.19732666 C-39.2851651 51.77706782 -37.94800695 51.34962987 -36.61303711 50.91552734 C-34.56415639 50.2505376 -32.50880863 49.60997085 -30.45117188 48.97265625 C-25.30672256 47.36251987 -25.30672256 47.36251987 -20.25 45.5 C-19.92 44.84 -19.59 44.18 -19.25 43.5 C-30.21106112 30.31247335 -43.12321568 20.8111783 -60.25 17.5 C-61.405 17.273125 -62.56 17.04625 -63.75 16.8125 C-72.86682296 15.99849795 -81.27501306 16.74572681 -90.25 18.5 Z M-148.32250977 36.66162109 C-149.54376305 37.04234268 -149.54376305 37.04234268 -150.78968811 37.43075562 C-151.6647551 37.70884064 -152.53982208 37.98692566 -153.44140625 38.2734375 C-154.79298073 38.69914536 -154.79298073 38.69914536 -156.17185974 39.13345337 C-158.07645011 39.73488342 -159.98032911 40.33857018 -161.88354492 40.94433594 C-164.80213283 41.87170587 -167.72409877 42.78780342 -170.64648438 43.703125 C-172.49500775 44.28838044 -174.34332237 44.87429573 -176.19140625 45.4609375 C-177.06849747 45.73497406 -177.94558868 46.00901062 -178.84925842 46.29135132 C-179.66027512 46.55147003 -180.47129181 46.81158875 -181.30688477 47.07958984 C-182.02175552 47.30609222 -182.73662628 47.5325946 -183.47315979 47.76596069 C-185.45912219 48.45342224 -185.45912219 48.45342224 -187.25 50.5 C-179.92175073 56.8226209 -172.57666649 63.10770755 -165.05078125 69.1953125 C-162.95964604 70.91605138 -160.90073692 72.65593543 -158.85546875 74.4296875 C-158.27676025 74.92911865 -157.69805176 75.4285498 -157.10180664 75.94311523 C-155.98030458 76.91366721 -154.86331472 77.88946686 -153.75170898 78.87133789 C-150.67772782 81.52484665 -148.2100944 83.55481548 -144.25 84.5 C-140.94105646 83.98229171 -137.82435591 82.95623858 -134.64453125 81.921875 C-133.26390755 81.4919223 -133.26390755 81.4919223 -131.85539246 81.05328369 C-129.91397686 80.44529838 -127.97498472 79.82952728 -126.03833008 79.20654297 C-123.06788202 78.25172998 -120.09066341 77.32119522 -117.11132812 76.39453125 C-115.22611929 75.8008848 -113.3413379 75.2058789 -111.45703125 74.609375 C-110.56434036 74.32906433 -109.67164948 74.04875366 -108.75190735 73.75994873 C-107.92732529 73.49337463 -107.10274323 73.22680054 -106.25317383 72.95214844 C-105.16326897 72.60334625 -105.16326897 72.60334625 -104.05134583 72.24749756 C-102.04443788 71.54916456 -102.04443788 71.54916456 -100.25 69.5 C-105.86031238 64.34328734 -111.55614212 59.38591172 -117.54296875 54.671875 C-120.70716677 52.13321107 -123.79028709 49.50909202 -126.875 46.875 C-136.32714723 37.42449583 -136.32714723 37.42449583 -148.32250977 36.66162109 Z M-244.11035156 66.76342773 C-245.55139252 67.21400795 -245.55139252 67.21400795 -247.02154541 67.6736908 C-248.56548981 68.17359276 -248.56548981 68.17359276 -250.140625 68.68359375 C-251.20037537 69.01794937 -252.26012573 69.35230499 -253.35198975 69.6967926 C-256.73778418 70.76745299 -260.11884811 71.85227789 -263.5 72.9375 C-265.79397361 73.66565058 -268.08824119 74.39287573 -270.3828125 75.11914062 C-276.0086642 76.90203395 -281.63069719 78.69657918 -287.25 80.5 C-283.68052117 84.10485001 -280.01502542 87.4966093 -276.125 90.75 C-275.55587891 91.22888672 -274.98675781 91.70777344 -274.40039062 92.20117188 C-269.98547099 95.90734187 -265.56496687 99.60664017 -260.9921875 103.1171875 C-258.80586748 105.01698125 -257.38935111 106.55084265 -255.6953125 108.8203125 C-252.70520627 112.5068986 -250.0169347 115.43299397 -245.25 116.5 C-236.43094264 115.63389207 -227.99444865 112.02715596 -219.78662109 108.84472656 C-214.90064814 106.98693704 -209.93780759 105.452789 -204.9375 103.9375 C-203.41982647 103.45939432 -201.90280588 102.97920638 -200.38671875 102.49609375 C-199.35160156 102.16738281 -198.31648438 101.83867187 -197.25 101.5 C-197.25 100.51 -197.25 99.52 -197.25 98.5 C-199.30658193 96.50046195 -201.35056142 94.68782606 -203.5625 92.875 C-204.2011499 92.34011963 -204.8397998 91.80523926 -205.49780273 91.25415039 C-207.40719554 89.65945337 -209.32645004 88.07757671 -211.25 86.5 C-212.21421875 85.70722656 -213.1784375 84.91445312 -214.171875 84.09765625 C-215.92563353 82.66299875 -217.68342941 81.23326182 -219.4453125 79.80859375 C-221.55053583 78.07574279 -223.6218678 76.32275143 -225.6796875 74.53515625 C-226.55451782 73.77924194 -226.55451782 73.77924194 -227.44702148 73.00805664 C-228.58182285 72.02479559 -229.71180862 71.03594068 -230.83618164 70.04077148 C-235.56748646 65.95259961 -238.13237508 64.85991417 -244.11035156 66.76342773 Z M-324.25 107.5 C-332.45960295 122.20959018 -332.45960295 122.20959018 -335.25 138.5 C-320.6476374 139.28460456 -308.91604077 137.74775966 -295.25 132.5 C-296.48854511 128.78436466 -297.94017178 127.90541409 -301 125.5 C-304.28345844 122.88610955 -307.54595299 120.26892417 -310.73046875 117.53515625 C-311.30635742 117.04080078 -311.88224609 116.54644531 -312.47558594 116.03710938 C-313.59707575 115.07107993 -314.7163077 114.10242161 -315.83300781 113.13085938 C-318.50317962 110.8411912 -320.99523687 108.87249048 -324.25 107.5 Z " fill="#F86F6F" transform="translate(418.25,74.5)"/>
<path d="M0 0 C1.92965531 1.82022597 3.83913871 3.65991135 5.75 5.5 C6.82894531 6.46679688 6.82894531 6.46679688 7.9296875 7.453125 C19.8206497 18.4367447 32.21588626 38.12110108 34.0859375 54.4296875 C34.18517441 61.91215073 33.46054385 67.30118328 28.41151428 73.01461792 C23.13619132 77.9284906 17.29821957 79.74125492 10.49609375 81.8203125 C9.29996964 82.20087296 8.10384552 82.58143341 6.87147522 82.973526 C3.64926218 83.99522677 0.42305815 85.00171059 -2.80599976 86.00139999 C-6.18449019 87.05140069 -9.55676188 88.12100785 -12.9296875 89.1887207 C-18.28216858 90.88061059 -23.63780221 92.56205691 -28.99658203 94.23388672 C-34.93930985 96.08843345 -40.87636572 97.95982602 -46.80859375 99.84765625 C-48.33485516 100.33251495 -49.86114026 100.81729909 -51.38745117 101.30200195 C-52.11161224 101.53198883 -52.83577332 101.76197571 -53.58187866 101.99893188 C-54.2973587 102.22615936 -55.01283875 102.45338684 -55.75 102.6875 C-56.46878326 102.91593597 -57.18756653 103.14437195 -57.9281311 103.37973022 C-66.48028493 106.09428926 -75.04777049 108.74778005 -83.64245605 111.32484436 C-117.22520677 121.16663804 -117.22520677 121.16663804 -148.76123047 136.06640625 C-151.4297419 137.60353585 -154.13583445 139.05592266 -156.8515625 140.5078125 C-161.77895895 143.19081555 -166.47709458 146.11110722 -171.125 149.25 C-171.89674561 149.76876709 -172.66849121 150.28753418 -173.46362305 150.82202148 C-200.4136867 169.10287301 -225.3338962 191.69351259 -244.93212891 217.74951172 C-246.24953962 219.49938849 -247.58336662 221.23587194 -248.91796875 222.97265625 C-278.28059641 261.63034921 -296.53158915 306.39853135 -305.72998047 353.82080078 C-306.35684208 357.05046242 -307.00745678 360.27503968 -307.65917969 363.49975586 C-308.19660667 366.1650944 -308.72416577 368.83235315 -309.25 371.5 C-327.99827193 369.3313566 -345.00841906 357.25405228 -357.0625 343.1875 C-370.77654612 325.4473119 -376.55689219 306.18518127 -376.53710938 283.82177734 C-376.54394241 282.61689163 -376.55077545 281.41200592 -376.55781555 280.17060852 C-376.5748157 276.90419975 -376.58346095 273.63789587 -376.58885384 270.37145185 C-376.59712824 266.93147961 -376.61805997 263.49158687 -376.63806152 260.05166626 C-376.69087373 250.58557777 -376.72450078 241.11944051 -376.75782013 231.65326691 C-376.78860073 222.96277839 -376.8235541 214.2723591 -376.87413073 205.58196032 C-376.89353617 202.16796537 -376.9088489 198.75405541 -376.91447449 195.34000778 C-376.92194742 191.53305706 -376.94123834 187.72632631 -376.96289062 183.91943359 C-376.96190872 182.80539658 -376.96092682 181.69135956 -376.95991516 180.54356384 C-377.006022 174.7020262 -377.47257212 169.29817921 -378.79422188 163.60123539 C-384.38251498 137.83799958 -376.82944033 108.07428153 -363 86.1875 C-341.82602747 54.31563432 -311.8779312 42.23205886 -276.625 31.3125 C-274.120166 30.53018228 -271.61561518 29.74695739 -269.11132812 28.96289062 C-265.18119386 27.73244023 -261.25093701 26.50240011 -257.31964111 25.27566528 C-244.09580093 21.14830553 -230.89337304 16.95435822 -217.6925354 12.75411987 C-211.1149136 10.6614364 -204.53596215 8.57293854 -197.95703125 6.484375 C-197.30801283 6.27832075 -196.65899441 6.0722665 -195.99030876 5.85996819 C-182.35636574 1.53157997 -168.71960133 -2.78786115 -155.08007812 -7.09863281 C-152.70838784 -7.84829041 -150.33680045 -8.59827366 -147.96533203 -9.34863281 C-141.48173982 -11.39984322 -134.99587205 -13.44356454 -128.5067749 -15.47729492 C-126.26058968 -16.18265071 -124.01523578 -16.89065742 -121.77056885 -17.60083008 C-118.28259502 -18.70375716 -114.79198709 -19.79797766 -111.30078125 -20.890625 C-109.73024239 -21.39018707 -109.73024239 -21.39018707 -108.12797546 -21.89984131 C-70.9499411 -33.46717941 -29.13209697 -26.67401929 0 0 Z M-90.25 18.5 C-90.25 19.49 -90.25 20.48 -90.25 21.5 C-88.35650618 23.33629766 -86.48522762 24.97721918 -84.4375 26.625 C-83.84582031 27.11291016 -83.25414062 27.60082031 -82.64453125 28.10351562 C-80.85324139 29.57767798 -79.05270102 31.03982735 -77.25 32.5 C-75.41655492 33.99986341 -73.58321268 35.49985255 -71.75 37 C-70.87214844 37.71285156 -69.99429687 38.42570312 -69.08984375 39.16015625 C-66.97939681 40.89902519 -64.89154861 42.65350079 -62.81640625 44.43359375 C-61.94242187 45.18189453 -61.94242187 45.18189453 -61.05078125 45.9453125 C-59.91881663 46.91702146 -58.78974961 47.89211942 -57.6640625 48.87109375 C-53.79787174 52.27198665 -53.79787174 52.27198665 -49.25 54.5 C-46.03191278 53.97748312 -46.03191278 53.97748312 -42.55078125 52.796875 C-41.91512741 52.59902405 -41.27947357 52.4011731 -40.6245575 52.19732666 C-39.2851651 51.77706782 -37.94800695 51.34962987 -36.61303711 50.91552734 C-34.56415639 50.2505376 -32.50880863 49.60997085 -30.45117188 48.97265625 C-25.30672256 47.36251987 -25.30672256 47.36251987 -20.25 45.5 C-19.92 44.84 -19.59 44.18 -19.25 43.5 C-30.21106112 30.31247335 -43.12321568 20.8111783 -60.25 17.5 C-61.405 17.273125 -62.56 17.04625 -63.75 16.8125 C-72.86682296 15.99849795 -81.27501306 16.74572681 -90.25 18.5 Z M-148.32250977 36.66162109 C-149.54376305 37.04234268 -149.54376305 37.04234268 -150.78968811 37.43075562 C-151.6647551 37.70884064 -152.53982208 37.98692566 -153.44140625 38.2734375 C-154.79298073 38.69914536 -154.79298073 38.69914536 -156.17185974 39.13345337 C-158.07645011 39.73488342 -159.98032911 40.33857018 -161.88354492 40.94433594 C-164.80213283 41.87170587 -167.72409877 42.78780342 -170.64648438 43.703125 C-172.49500775 44.28838044 -174.34332237 44.87429573 -176.19140625 45.4609375 C-177.06849747 45.73497406 -177.94558868 46.00901062 -178.84925842 46.29135132 C-179.66027512 46.55147003 -180.47129181 46.81158875 -181.30688477 47.07958984 C-182.02175552 47.30609222 -182.73662628 47.5325946 -183.47315979 47.76596069 C-185.45912219 48.45342224 -185.45912219 48.45342224 -187.25 50.5 C-179.92175073 56.8226209 -172.57666649 63.10770755 -165.05078125 69.1953125 C-162.95964604 70.91605138 -160.90073692 72.65593543 -158.85546875 74.4296875 C-158.27676025 74.92911865 -157.69805176 75.4285498 -157.10180664 75.94311523 C-155.98030458 76.91366721 -154.86331472 77.88946686 -153.75170898 78.87133789 C-150.67772782 81.52484665 -148.2100944 83.55481548 -144.25 84.5 C-140.94105646 83.98229171 -137.82435591 82.95623858 -134.64453125 81.921875 C-133.26390755 81.4919223 -133.26390755 81.4919223 -131.85539246 81.05328369 C-129.91397686 80.44529838 -127.97498472 79.82952728 -126.03833008 79.20654297 C-123.06788202 78.25172998 -120.09066341 77.32119522 -117.11132812 76.39453125 C-115.22611929 75.8008848 -113.3413379 75.2058789 -111.45703125 74.609375 C-110.56434036 74.32906433 -109.67164948 74.04875366 -108.75190735 73.75994873 C-107.92732529 73.49337463 -107.10274323 73.22680054 -106.25317383 72.95214844 C-105.16326897 72.60334625 -105.16326897 72.60334625 -104.05134583 72.24749756 C-102.04443788 71.54916456 -102.04443788 71.54916456 -100.25 69.5 C-105.86031238 64.34328734 -111.55614212 59.38591172 -117.54296875 54.671875 C-120.70716677 52.13321107 -123.79028709 49.50909202 -126.875 46.875 C-136.32714723 37.42449583 -136.32714723 37.42449583 -148.32250977 36.66162109 Z M-244.11035156 66.76342773 C-245.55139252 67.21400795 -245.55139252 67.21400795 -247.02154541 67.6736908 C-248.56548981 68.17359276 -248.56548981 68.17359276 -250.140625 68.68359375 C-251.20037537 69.01794937 -252.26012573 69.35230499 -253.35198975 69.6967926 C-256.73778418 70.76745299 -260.11884811 71.85227789 -263.5 72.9375 C-265.79397361 73.66565058 -268.08824119 74.39287573 -270.3828125 75.11914062 C-276.0086642 76.90203395 -281.63069719 78.69657918 -287.25 80.5 C-283.68052117 84.10485001 -280.01502542 87.4966093 -276.125 90.75 C-275.55587891 91.22888672 -274.98675781 91.70777344 -274.40039062 92.20117188 C-269.98547099 95.90734187 -265.56496687 99.60664017 -260.9921875 103.1171875 C-258.80586748 105.01698125 -257.38935111 106.55084265 -255.6953125 108.8203125 C-252.70520627 112.5068986 -250.0169347 115.43299397 -245.25 116.5 C-236.43094264 115.63389207 -227.99444865 112.02715596 -219.78662109 108.84472656 C-214.90064814 106.98693704 -209.93780759 105.452789 -204.9375 103.9375 C-203.41982647 103.45939432 -201.90280588 102.97920638 -200.38671875 102.49609375 C-199.35160156 102.16738281 -198.31648438 101.83867187 -197.25 101.5 C-197.25 100.51 -197.25 99.52 -197.25 98.5 C-199.30658193 96.50046195 -201.35056142 94.68782606 -203.5625 92.875 C-204.2011499 92.34011963 -204.8397998 91.80523926 -205.49780273 91.25415039 C-207.40719554 89.65945337 -209.32645004 88.07757671 -211.25 86.5 C-212.21421875 85.70722656 -213.1784375 84.91445312 -214.171875 84.09765625 C-215.92563353 82.66299875 -217.68342941 81.23326182 -219.4453125 79.80859375 C-221.55053583 78.07574279 -223.6218678 76.32275143 -225.6796875 74.53515625 C-226.55451782 73.77924194 -226.55451782 73.77924194 -227.44702148 73.00805664 C-228.58182285 72.02479559 -229.71180862 71.03594068 -230.83618164 70.04077148 C-235.56748646 65.95259961 -238.13237508 64.85991417 -244.11035156 66.76342773 Z M-324.25 107.5 C-332.45960295 122.20959018 -332.45960295 122.20959018 -335.25 138.5 C-320.6476374 139.28460456 -308.91604077 137.74775966 -295.25 132.5 C-296.48854511 128.78436466 -297.94017178 127.90541409 -301 125.5 C-304.28345844 122.88610955 -307.54595299 120.26892417 -310.73046875 117.53515625 C-311.30635742 117.04080078 -311.88224609 116.54644531 -312.47558594 116.03710938 C-313.59707575 115.07107993 -314.7163077 114.10242161 -315.83300781 113.13085938 C-318.50317962 110.8411912 -320.99523687 108.87249048 -324.25 107.5 Z " fill="#D55353" transform="translate(418.25,74.5)"/>
<path d="M0 0 C9.30178614 0.07298008 18.60362223 0.13825951 27.90546823 0.20308137 C46.96607358 0.33607218 66.0266008 0.47814575 85.08709133 0.62664735 C81.18570895 3.81077815 77.14754077 6.4772417 72.83709133 9.06414735 C43.36267205 27.14675999 16.16147544 52.28021748 -4.59503758 79.87615907 C-5.91244829 81.62603584 -7.2462753 83.36251929 -8.58087742 85.0993036 C-37.94350508 123.75699656 -56.19449783 168.5251787 -65.39288914 215.94744813 C-66.01975075 219.17710978 -66.67036546 222.40168703 -67.32208836 225.62640321 C-67.85951534 228.29174175 -68.38707444 230.95900051 -68.91290867 233.62664735 C-87.6611806 231.45800396 -104.67132774 219.38069963 -116.72540867 205.31414735 C-130.36320772 187.67259079 -136.27079555 168.42749746 -136.1558286 146.1671747 C-136.15772694 144.9848929 -136.15962529 143.8026111 -136.16158116 142.58450258 C-136.16525857 138.71046057 -136.15462299 134.83660997 -136.14337742 130.96258485 C-136.14116993 128.24274601 -136.14168237 125.52290903 -136.14198887 122.80306947 C-136.14105599 117.11256529 -136.13242814 111.42211483 -136.11871922 105.73162782 C-136.10304332 99.20156577 -136.09771985 92.67156259 -136.09845477 86.14148307 C-136.09913684 79.1283993 -136.09215501 72.11533751 -136.08300817 65.10226047 C-136.08090177 63.11060769 -136.08032656 61.11895348 -136.07976925 59.12729967 C-136.07498273 50.95952785 -136.03539279 42.79356312 -135.91290867 34.62664735 C-135.8991935 33.6905488 -135.88547833 32.75445024 -135.87134755 31.78998506 C-135.82301506 29.30772037 -135.74538905 26.82878467 -135.65241063 24.34783876 C-135.6389595 23.66513603 -135.62550837 22.9824333 -135.61164963 22.2790426 C-135.28413245 15.62968226 -132.75286552 10.5084214 -128.16290867 5.81414735 C-119.28586033 -0.16078903 -110.39228682 0.05483652 -100.04962742 -0.0881964 C-99.15842387 -0.10489819 -98.26722031 -0.12159998 -97.34901059 -0.13880789 C-64.90920375 -0.74355593 -32.44172576 -0.25539621 0 0 Z " fill="#DE6363" transform="translate(177.91290867328644,212.3733526468277)"/>
<path d="M0 0 C-7.22844481 2.37639511 -14.46047252 4.74158674 -21.69723129 7.09253788 C-25.0574681 8.18454098 -28.41635756 9.28036216 -31.77246094 10.38500977 C-35.63108677 11.65487371 -39.49498858 12.90793112 -43.359375 14.16015625 C-44.5636615 14.55904556 -45.767948 14.95793488 -47.00872803 15.36891174 C-48.12958801 15.72936081 -49.250448 16.08980988 -50.40527344 16.46118164 C-51.39122498 16.78317032 -52.37717651 17.105159 -53.39300537 17.43690491 C-56.05905137 18.01275474 -57.46557906 17.91555125 -60 17 C-44.60424535 11.03167032 -29.31464055 5.26445009 -13.3125 1.125 C-12.45003662 0.89723877 -11.58757324 0.66947754 -10.69897461 0.43481445 C-9.8869458 0.23202881 -9.07491699 0.02924316 -8.23828125 -0.1796875 C-7.51680908 -0.36257324 -6.79533691 -0.54545898 -6.05200195 -0.73388672 C-3.75507347 -1.03176323 -2.21267997 -0.61073409 0 0 Z " fill="#EE5B5B" transform="translate(359,178)"/>
<path d="M0 0 C-0.6612085 0.32798584 -1.32241699 0.65597168 -2.00366211 0.99389648 C-4.98264075 2.47302847 -7.96008579 3.95522161 -10.9375 5.4375 C-11.97841797 5.95376953 -13.01933594 6.47003906 -14.09179688 7.00195312 C-15.08115234 7.49501953 -16.07050781 7.98808594 -17.08984375 8.49609375 C-18.00628662 8.95169678 -18.92272949 9.4072998 -19.86694336 9.87670898 C-21.92444229 10.82571613 -21.92444229 10.82571613 -23 12 C-25.86267567 12.07325168 -28.700719 12.09238205 -31.5625 12.0625 C-32.36880859 12.05798828 -33.17511719 12.05347656 -34.00585938 12.04882812 C-36.00393756 12.03700518 -38.00197783 12.01906914 -40 12 C-36.61464378 9.74309585 -33.20576163 8.60727515 -29.375 7.36328125 C-28.63169434 7.11958298 -27.88838867 6.8758847 -27.12255859 6.62480164 C-25.5532049 6.1122514 -23.98303255 5.60220196 -22.41210938 5.09448242 C-20.00576953 4.31437043 -17.60448449 3.51989991 -15.203125 2.72460938 C-13.67737119 2.22828091 -12.15133845 1.73280887 -10.625 1.23828125 C-9.90618652 0.9987825 -9.18737305 0.75928375 -8.44677734 0.51252747 C-3.34332727 -1.11444242 -3.34332727 -1.11444242 0 0 Z " fill="#030101" transform="translate(289,201)"/>
</svg>
